HIERARCHY
ROOT Hips
{
	OFFSET 0.000000 0.000000 0.000000
	CHANNELS 6 Xposition Yposition Zposition Xrotation Yrotation Zrotation
	JOINT LeftUpLeg_virtual
	{
		OFFSET 0.000000 0.000000 0.000000
		CHANNELS 3 Xrotation Yrotation Zrotation
		JOINT LeftUpLeg
		{
			OFFSET 13.026900 -6.336304 -1.092800
			CHANNELS 3 Xrotation Yrotation Zrotation
			JOINT LeftLeg
			{
				OFFSET 0.524474 -46.096886 9.782700
				CHANNELS 3 Xrotation Yrotation Zrotation
				JOINT LeftFoot
				{
					OFFSET -0.524474 -53.427422 -12.948200
					CHANNELS 3 Xrotation Yrotation Zrotation
					JOINT LeftToeBase
					{
						OFFSET 0.192200 -14.009700 16.364100
						CHANNELS 3 Xrotation Yrotation Zrotation
						JOINT LeftToe_End
						{
							OFFSET -1.784700 -0.561700 9.474800
							CHANNELS 3 Xrotation Yrotation Zrotation
							End Site
							{
								OFFSET 0 0 0
							}
						}
					}
				}
			}
		}
	}
	JOINT RightUpLeg_virtual
	{
		OFFSET 0.000000 0.000000 0.000000
		CHANNELS 3 Xrotation Yrotation Zrotation
		JOINT RightUpLeg
		{
			OFFSET -12.883000 -6.336304 -1.092800
			CHANNELS 3 Xrotation Yrotation Zrotation
			JOINT RightLeg
			{
				OFFSET -0.524587 -46.096825 9.782800
				CHANNELS 3 Xrotation Yrotation Zrotation
				JOINT RightFoot
				{
					OFFSET 0.524587 -53.427383 -12.948300
					CHANNELS 3 Xrotation Yrotation Zrotation
					JOINT RightToeBase
					{
						OFFSET -0.192200 -14.009700 16.364100
						CHANNELS 3 Xrotation Yrotation Zrotation
						JOINT RightToe_End
						{
							OFFSET 1.784700 -0.561700 9.474800
							CHANNELS 3 Xrotation Yrotation Zrotation
							End Site
							{
								OFFSET 0 0 0
							}
						}
					}
				}
			}
		}
	}
	JOINT Spine_virtual
	{
		OFFSET 0.000000 0.000000 0.000000
		CHANNELS 3 Xrotation Yrotation Zrotation
		JOINT Spine
		{
			OFFSET 0.072000 7.257294 -0.789700
			CHANNELS 3 Xrotation Yrotation Zrotation
			JOINT Spine1
			{
				OFFSET 0.000000 12.508769 -0.658067
				CHANNELS 3 Xrotation Yrotation Zrotation
				JOINT Spine1_split
				{
					OFFSET 0.000000 12.508769 -0.658067
					CHANNELS 3 Xrotation Yrotation Zrotation
					JOINT Spine2
					{
						OFFSET 0.000000 12.508769 -0.658067
						CHANNELS 3 Xrotation Yrotation Zrotation
						JOINT Neck_virtual
						{
							OFFSET 0.000000 0.000000 0.000000
							CHANNELS 3 Xrotation Yrotation Zrotation
							JOINT Neck
							{
								OFFSET 0.000000 14.033295 7.520400
								CHANNELS 3 Xrotation Yrotation Zrotation
								JOINT Head
								{
									OFFSET 0.000000 8.198502 5.703100
									CHANNELS 3 Xrotation Yrotation Zrotation
									JOINT HeadTop_End
									{
										OFFSET 0.000000 17.760803 13.332701
										CHANNELS 3 Xrotation Yrotation Zrotation
										End Site
										{
											OFFSET 0 0 0
										}
									}
								}
							}
						}
						JOINT LeftShoulder_virtual
						{
							OFFSET 0.000000 0.000000 0.000000
							CHANNELS 3 Xrotation Yrotation Zrotation
							JOINT LeftShoulder
							{
								OFFSET 6.292450 5.785301 -0.669000
								CHANNELS 3 Xrotation Yrotation Zrotation
								JOINT LeftShoulder_split
								{
									OFFSET 6.292450 5.785301 -0.669000
									CHANNELS 3 Xrotation Yrotation Zrotation
									JOINT LeftArm
									{
										OFFSET 13.907140 -6.093903 1.965100
										CHANNELS 3 Xrotation Yrotation Zrotation
										JOINT LeftForeArm
										{
											OFFSET 34.140198 0.000000 0.000000
											CHANNELS 3 Xrotation Yrotation Zrotation
											JOINT LeftHand
											{
												OFFSET 40.960209 0.000000 0.000000
												CHANNELS 3 Xrotation Yrotation Zrotation
												End Site
												{
													OFFSET 0 0 0
												}
											}
										}
									}
								}
							}
						}
						JOINT RightShoulder_virtual
						{
							OFFSET 0.000000 0.000000 0.000000
							CHANNELS 3 Xrotation Yrotation Zrotation
							JOINT RightShoulder
							{
								OFFSET -6.292450 5.785301 -0.669000
								CHANNELS 3 Xrotation Yrotation Zrotation
								JOINT RightShoulder_split
								{
									OFFSET -6.292450 5.785301 -0.669000
									CHANNELS 3 Xrotation Yrotation Zrotation
									JOINT RightArm
									{
										OFFSET -13.907140 -6.093903 1.965100
										CHANNELS 3 Xrotation Yrotation Zrotation
										JOINT RightForeArm
										{
											OFFSET -34.140198 0.000000 0.000000
											CHANNELS 3 Xrotation Yrotation Zrotation
											JOINT RightHand
											{
												OFFSET -40.960209 0.000000 0.000000
												CHANNELS 3 Xrotation Yrotation Zrotation
												End Site
												{
													OFFSET 0 0 0
												}
											}
										}
									}
								}
							}
						}
					}
				}
			}
		}
	}
}
MOTION
Frames: 8
Frame Time: 0.03333333
0.324927 97.335701 0.105549 0.000000 0.000000 0.000000 10.780275 67.605089 -12.772175 -18.523558 0.136725 21.126820 48.979355 -7.051802 9.799597 -30.245129 4.351027 -14.102148 -9.492820 0.000006 0.000000 0.000000 0.000000 0.000000 10.780275 67.605089 -12.772175 -35.312242 6.895139 -15.676592 45.347310 8.410049 -6.548644 -15.879503 1.509849 21.241605 -5.169456 0.000011 -0.000000 0.000000 0.000000 0.000000 10.780275 67.605089 -12.772175 1.879954 -2.286843 0.858609 2.147806 -0.574861 -0.033124 0.000000 0.000000 0.000000 0.000000 0.000000 0.000000 2.136799 -0.620502 -0.146677 -4.452906 -10.379984 0.183236 -3.546772 -51.462327 5.883606 0.000000 0.000000 0.000000 2.136799 -0.620502 -0.146677 1.127385 -10.640397 -5.486604 0.000000 0.000000 0.000000 -1.802090 -47.065433 -47.163160 179.999991 -73.678139 179.999991 0.000000 0.000000 0.000000 2.136799 -0.620502 -0.146677 0.469306 -2.168347 7.105747 0.000000 0.000000 0.000000 -29.988362 -15.739971 41.708403 179.999964 70.652822 -179.999964 0.000000 0.000000 0.000000 
1.200997 102.888306 -0.716787 0.000000 0.000000 0.000000 7.988977 63.843076 -9.940213 -14.779845 4.653895 19.647695 42.002518 -6.584395 9.926582 -21.945085 3.482588 -13.930829 -12.947224 -0.000020 -0.000003 0.000000 0.000000 0.000000 7.988977 63.843076 -9.940213 -31.086093 4.528232 -15.738033 34.070978 8.473247 -6.567638 -8.309385 7.951410 22.892257 -5.002593 -0.000007 -0.000004 0.000000 0.000000 0.000000 7.988977 63.843076 -9.940213 1.901406 -2.790059 0.838616 2.147877 -0.743400 -0.181093 0.000000 0.000000 0.000000 0.000000 0.000000 0.000000 2.123235 -0.800165 -0.306782 -3.798640 -9.756316 0.643417 -3.007115 -47.953146 6.067489 0.000000 0.000000 0.000000 2.123235 -0.800165 -0.306782 1.197100 -10.412335 -4.302577 0.000000 0.000000 0.000000 -5.193340 -45.854253 -50.234125 -179.999937 -72.244017 -179.999937 0.000000 0.000000 0.000000 2.123235 -0.800165 -0.306782 0.488560 -1.683395 7.375535 0.000000 0.000000 0.000000 -29.457199 -13.864266 41.538178 179.999991 68.998325 -179.999991 0.000000 0.000000 0.000000 
2.461762 110.979630 -1.927050 0.000000 0.000000 0.000000 6.539808 57.771953 -8.509683 -11.135309 8.917438 18.058773 32.660168 -4.482401 8.182438 -4.928478 1.343416 -12.872132 -21.534014 0.000022 -0.009645 0.000000 0.000000 0.000000 6.539808 57.771953 -8.509683 -25.192400 1.469634 -13.611808 16.421503 8.627477 -7.091118 7.237754 15.636986 21.187573 -11.707702 0.000027 0.000008 0.000000 0.000000 0.000000 6.539808 57.771953 -8.509683 1.008055 -3.093505 0.707017 1.369297 -0.750840 -0.544704 0.000000 0.000000 0.000000 0.000000 0.000000 0.000000 1.328520 -0.799757 -0.660572 -2.260077 -8.831628 1.629504 -0.070823 -42.200758 6.263266 0.000000 0.000000 0.000000 1.328520 -0.799757 -0.660572 1.264991 -9.251289 -1.937964 0.000000 0.000000 0.000000 -9.747295 -45.080983 -53.432915 -179.999964 -70.543150 -179.999978 0.000000 0.000000 0.000000 1.328520 -0.799757 -0.660572 0.565216 -0.209074 8.822583 0.000000 0.000000 0.000000 -28.956843 -9.525900 37.940533 -179.999950 68.387160 179.999978 0.000000 0.000000 0.000000 
3.218116 116.633125 -2.291445 0.000000 0.000000 0.000000 5.859574 50.522844 -6.097917 -9.340080 10.068839 14.862799 26.859263 -0.400220 6.187961 16.147836 -0.973943 -9.817861 -31.083576 1.957636 -9.356994 0.000000 0.000000 0.000000 5.859574 50.522844 -6.097917 -26.013201 0.259069 -13.073307 11.866049 9.191830 -5.101633 17.415249 12.743181 15.535935 -1.259097 0.000010 -0.000005 0.000000 0.000000 0.000000 5.859574 50.522844 -6.097917 0.124134 -3.246151 -0.743211 0.605338 -0.473774 -0.931585 0.000000 0.000000 0.000000 0.000000 0.000000 0.000000 0.553922 -0.512514 -1.019412 -1.188954 -7.795699 2.406634 1.667985 -36.088274 5.848700 0.000000 0.000000 0.000000 0.553922 -0.512514 -1.019412 1.307743 -8.658854 0.291260 0.000000 0.000000 0.000000 -14.937099 -42.074611 -55.476880 -179.999923 -67.700152 -179.999937 0.000000 0.000000 0.000000 0.553922 -0.512514 -1.019412 0.601170 2.797506 9.668298 0.000000 0.000000 0.000000 -29.462356 -5.853206 33.684417 -179.999950 67.689845 179.999950 0.000000 0.000000 0.000000 
3.648335 122.014893 -3.593611 0.000000 0.000000 0.000000 4.826936 43.532644 -6.071490 -11.267045 7.972488 13.567307 29.874445 3.336977 5.597755 25.225461 -1.320335 -7.094293 -8.733114 1.580046 -9.920892 0.000000 0.000000 0.000000 4.826936 43.532644 -6.071490 -26.362983 -3.218223 -11.450612 13.688674 9.211422 -2.492903 14.334539 1.566165 11.497232 2.020159 -0.000004 0.000001 0.000000 0.000000 0.000000 4.826936 43.532644 -6.071490 0.673477 -2.546632 1.494585 0.985250 -0.223867 -0.482494 0.000000 0.000000 0.000000 0.000000 0.000000 0.000000 0.956667 -0.257992 -0.571311 -1.943177 -6.815075 2.080529 1.160354 -31.252944 4.601424 0.000000 0.000000 0.000000 0.956667 -0.257992 -0.571311 1.144506 -7.246868 -0.418776 0.000000 0.000000 0.000000 -17.263573 -39.941242 -52.918718 -179.999991 -66.541356 -179.999991 0.000000 0.000000 0.000000 0.956667 -0.257992 -0.571311 0.608124 4.290607 9.147271 0.000000 0.000000 0.000000 -30.800704 -1.171632 31.921661 179.999978 67.287643 -179.999978 0.000000 0.000000 0.000000 
3.601820 124.820038 -4.530611 0.000000 0.000000 0.000000 2.681482 37.939676 -5.182473 -16.791136 5.819092 13.173856 41.576598 1.864350 4.649820 23.650732 -0.982048 -5.886262 3.756487 0.000018 -0.000014 0.000000 0.000000 0.000000 2.681482 37.939676 -5.182473 -26.894121 -5.595227 -11.678277 23.090481 6.157662 -0.350315 8.048195 0.173798 8.144414 3.197362 0.000011 0.000003 0.000000 0.000000 0.000000 2.681482 37.939676 -5.182473 1.968377 -1.626497 2.840696 2.112716 0.216714 -0.015671 0.000000 0.000000 0.000000 0.000000 0.000000 0.000000 2.107107 0.172487 -0.130753 -2.819591 -6.059502 1.438322 0.460374 -28.076128 3.556616 0.000000 0.000000 0.000000 2.107107 0.172487 -0.130753 0.961109 -5.437052 -1.714552 0.000000 0.000000 0.000000 -19.505618 -39.400028 -50.928127 -179.999978 -67.372740 -179.999991 0.000000 0.000000 0.000000 2.107107 0.172487 -0.130753 0.604683 3.830620 9.160627 0.000000 0.000000 0.000000 -31.577706 4.135920 31.608548 -179.999937 68.440572 179.999937 0.000000 0.000000 0.000000 
3.481936 126.400452 -5.227198 0.000000 0.000000 0.000000 0.661526 32.131686 -3.315799 -21.790884 5.571624 13.354340 49.846782 0.189287 3.312279 20.008921 -0.739455 -6.008248 1.291536 -0.000009 0.000006 0.000000 0.000000 0.000000 0.661526 32.131686 -3.315799 -26.394172 -5.373898 -11.736595 32.493334 7.965175 -0.378479 6.712751 0.097016 7.383102 1.733282 -0.000006 0.000002 0.000000 0.000000 0.000000 0.661526 32.131686 -3.315799 2.778695 -0.529776 2.407894 2.922564 0.887165 -0.117088 0.000000 0.000000 0.000000 0.000000 0.000000 0.000000 2.923315 0.836396 -0.239897 -1.966380 -5.430178 1.242509 0.517590 -25.364321 3.003491 0.000000 0.000000 0.000000 2.923315 0.836396 -0.239897 0.897473 -4.782559 -1.205536 0.000000 0.000000 0.000000 -21.508360 -37.974383 -52.397868 179.999964 -68.903672 179.999964 0.000000 0.000000 0.000000 2.923315 0.836396 -0.239897 0.607269 4.073722 9.670780 0.000000 0.000000 0.000000 -31.001662 7.695755 32.288087 179.999937 71.552058 -179.999923 0.000000 0.000000 0.000000 
3.775770 127.975151 -5.639063 0.000000 0.000000 0.000000 0.317937 25.958752 -1.889519 -25.123273 6.205171 14.402398 49.810982 0.848086 2.205778 17.089809 -0.635736 -7.389175 0.387189 -0.000002 0.000007 0.000000 0.000000 0.000000 0.317937 25.958752 -1.889519 -24.842356 -4.325354 -12.277718 37.544122 8.865680 -1.340552 7.531183 0.194081 7.440801 1.564791 -0.000007 0.000003 0.000000 0.000000 0.000000 0.317937 25.958752 -1.889519 2.515452 0.324521 1.691563 2.762109 1.341494 -0.494822 0.000000 0.000000 0.000000 0.000000 0.000000 0.000000 2.757108 1.309576 -0.592092 -0.644864 -4.679319 1.099953 1.172981 -22.036185 2.700012 0.000000 0.000000 0.000000 2.757108 1.309576 -0.592092 0.840818 -4.102905 -0.852991 0.000000 0.000000 0.000000 -20.084571 -35.848142 -53.771969 -179.999978 -70.083820 -179.999964 0.000000 0.000000 0.000000 2.757108 1.309576 -0.592092 0.608933 5.493236 10.201699 0.000000 0.000000 0.000000 -29.286571 9.570629 34.357539 -179.999773 75.167857 179.999786 0.000000 0.000000 0.000000 
